<?xml version="1.0" standalone="no"?><!DOCTYPE svg PUBLIC "-//W3C//DTD SVG 1.1//EN" "http://www.w3.org/Graphics/SVG/1.1/DTD/svg11.dtd"><svg t="1739596994384" class="icon" viewBox="0 0 1024 1024" version="1.1" xmlns="http://www.w3.org/2000/svg" p-id="1500" xmlns:xlink="http://www.w3.org/1999/xlink" width="200" height="200"><path d="M188.084651 473.165989l0.12327 238.575851 60.595193 60.44727-60.455488 60.607519 0.184905 150.113527 82.315284-0.094507 88.836243-92.879483-0.628675-369.82914" fill="#FFE600" p-id="1501"></path><path d="M187.390233 544.871875s15.856571 47.25332 108.888086 47.253321v351.318165l63.409848-53.503086v-335.420505l-176.406918-61.0102 4.108984 51.362305z" fill="#FFB624" p-id="1502"></path><path d="M167.53973 473.174206l0.123269 238.575852c0 5.456731 2.169544 10.687468 6.036098 14.533478l60.595193 60.447269a20.540813 20.540813 0 0 1-0.036981-29.050519l-60.455487 60.607519a20.528486 20.528486 0 0 0-5.999117 14.533478l0.184904 150.113527a20.544922 20.544922 0 0 0 20.569576 20.520268l82.315284-0.094507a20.557249 20.557249 0 0 0 14.816998-6.344271l88.836242-92.879484a20.55314 20.55314 0 0 0 5.699162-14.237631l-0.624566-369.833249-41.089844 0.073962 0.624566 369.833249a20.544922 20.544922 0 0 1 5.70327-14.237631l-88.836243 92.879483a20.573685 20.573685 0 0 1 14.816998-6.344272l-82.307066 0.094507a20.544922 20.544922 0 0 1 20.569576 20.520268l-0.189014-150.113527a20.544922 20.544922 0 0 1-5.999117 14.533478l60.455488-60.60752a20.55314 20.55314 0 0 0-0.04109-29.058737l-60.591084-60.44727a20.598339 20.598339 0 0 1 6.036098 14.533478l-0.12327-238.575851-41.089843 0.024653z" fill="#6E6E96" p-id="1503"></path><path d="M932.386084 765.627062L559.573821 392.818908c42.84438-91.490646 26.49884-203.826171-49.061273-279.390394-96.446082-96.446082-252.801156-96.446082-349.259565 0-96.446082 96.446082-96.450191 252.813483 0 349.263673C232.724658 534.167971 337.072317 552.609093 425.583949 518.155259l78.070704 78.074812h109.578395v92.44804l71.907227 71.911336h85.594254v85.602471l106.151503 106.147394 58.207873-58.216091-2.707821-128.496159zM335.2356 372.306858c-48.481907 0-87.763798-39.294218-87.763797-87.763798S286.766021 196.779262 335.2356 196.779262c48.46958 0 87.751471 39.294218 87.751471 87.763798s-39.281891 87.763798-87.751471 87.763798z" fill="#FFE600" p-id="1504"></path><path d="M336.312154 197.662694c47.261538 0 87.858304 63.43861 106.089868 103.907997a115.778853 115.778853 0 0 0 10.313551-47.721744c0-64.28917-52.114249-116.411637-116.403419-116.411637-64.293279 0-116.411637 52.122467-116.411636 116.411637 0 17.023522 3.743285 33.143068 10.309441 47.721744 18.235673-40.469387 58.832439-103.907997 106.102195-103.907997z" fill="#FFB624" p-id="1505"></path><path d="M335.2356 351.761936c-37.067148 0-67.218876-30.151727-67.218875-67.218876S298.172561 217.324184 335.2356 217.324184c37.063039 0 67.206549 30.151727 67.206549 67.218876s-30.143509 67.218876-67.206549 67.218876z m108.304611-67.218876c0-59.719979-48.584631-108.30872-108.296393-108.308719-59.724088 0-108.30872 48.58874-108.308719 108.308719S275.523839 392.85178 335.243818 392.85178c59.711761 0 108.296393-48.58874 108.296393-108.30872z" fill="#6E6E96" p-id="1506"></path><path d="M937.715437 815.432061l-56.728639 56.732748-73.279627-77.380394v-89.715565h-89.703239l-59.580273-59.580274v-104.779102h-126.014334l-102.724609-102.72461c-88.511633 34.453834-187.262855 16.008603-258.738638-55.463071-58.520156-58.532483-53.749625-152.919963-33.426588-203.653593-56.962851 84.538245-29.560034 218.203507 27.838369 275.606019C236.833642 525.950002 341.181301 544.391124 429.692934 509.93729l78.070703 78.074812h109.578396v92.44804l71.907227 71.911336h85.594254v85.602472l106.151502 106.147393 58.207873-58.21609-1.487452-70.473192z" fill="#FFB624" p-id="1507"></path><path d="M333.69884 88.770499c118.01825 0 214.702652 91.034549 223.849252 206.698351 0.464315-5.916938 0.772489-11.887292 0.772489-17.92339 0-124.054348-100.567393-224.62585-224.621741-224.62585-124.058457 0-224.621741 100.571502-224.62174 224.62585 0 6.040207 0.304065 12.006452 0.772489 17.92339 9.150708-115.663802 105.83922-206.698351 223.849251-206.698351z" fill="#FFFFFF" opacity=".55" p-id="1508"></path><path d="M946.911344 751.097693l-372.804045-372.808154a20.544922 20.544922 0 0 1 4.080222 23.240416c47.590257-101.63162 26.235865-223.253449-53.149714-302.63081-104.294242-104.298351-274.007624-104.298351-378.314192 0-104.298351 104.30246-104.298351 274.015842 0 378.318302 75.00951 75.001292 187.386124 98.582754 286.314032 60.077461a20.540813 20.540813 0 0 1-21.983067-4.61439l78.070704 78.074813a20.544922 20.544922 0 0 0 14.529369 6.019662h109.578395c-11.349015 0-20.544922-9.191798-20.544922-20.544922v92.44804c0 5.448513 2.161326 10.675141 6.019663 14.52526l71.907226 71.911335a20.540813 20.540813 0 0 0 14.52526 6.019663h85.594254c-11.349015 0-20.544922-9.191798-20.544922-20.544922v85.602471c0 5.448513 2.161326 10.675141 6.019662 14.52526l106.151503 106.147394a20.540813 20.540813 0 0 0 29.054629 0l58.207873-58.2202a20.549031 20.549031 0 0 0 6.011444-14.960812l-2.707821-128.492051a20.569576 20.569576 0 0 0-6.015553-14.093816z m-26.346808 128.500269l-58.207873 58.21609a20.549031 20.549031 0 0 1 29.054629 0l-106.151503-106.147393a20.540813 20.540813 0 0 1 6.019662 14.525259v-85.602471c0-11.353124-9.195907-20.544922-20.544922-20.544922h-85.594254c5.448513 0 10.67925 2.161326 14.52526 6.019662l-71.907227-71.911336a20.540813 20.540813 0 0 1 6.019662 14.52526v-92.44804c0-11.353124-9.191798-20.544922-20.544922-20.544922h-109.578395c5.448513 0 10.67925 2.161326 14.52526 6.019662l-78.070704-78.074812a20.549031 20.549031 0 0 0-21.978957-4.618499c-83.741102 32.596573-178.8682 12.639236-242.352009-50.844573-88.277421-88.28153-88.277421-231.927515 0-320.209044 88.28153-88.277421 231.927515-88.277421 320.204936 0 67.194222 67.190113 85.265535 170.12839 44.985161 256.149978a20.536704 20.536704 0 0 0 4.080221 23.240416l372.808154 372.804044a20.532595 20.532595 0 0 1-6.019662-14.093816l2.707821 128.492051a20.586012 20.586012 0 0 1 6.019662-14.952594z" fill="#6E6E96" p-id="1509"></path><path d="M386.675976 301.755596h372.549288a20.544922 20.544922 0 1 0 0-41.089844H386.675976a20.544922 20.544922 0 0 0 0 41.089844z" fill="#6E6E96" p-id="1510"></path></svg>